<svg xmlns="http://www.w3.org/2000/svg" viewBox="0 0 330.81 352.83"><defs><style>.cls-1{isolation:isolate;}.cls-2{fill:#d4dde2;}.cls-3{fill:#727689;}.cls-11,.cls-4{fill:#a1b2c2;}.cls-4{mix-blend-mode:multiply;opacity:0.3;}.cls-5{fill:#bbc6d1;}.cls-6{fill:#363434;}.cls-7{fill:#966c63;}.cls-8{fill:#694545;}.cls-9{fill:#875650;}.cls-10{fill:#fff;}.cls-12{fill:#dee3e3;}</style></defs><g class="cls-1"><g id="Calque_2" data-name="Calque 2"><g id="OBJECTS"><path class="cls-2" d="M24.67,344.63c7.59,6.59,18.56,9.42,28.15,6.42,11.87-3.72,20.09-16.38,19.15-28.77-.69-9-6-17.3-13.36-22.35-8.22-5.63-15.08-5.2-23.45.21C20.24,309.79,8.55,330.63,24.67,344.63Z"/><path class="cls-3" d="M168.49,352.83H39.69c4-46.35,11.18-95.88,11.18-95.88H162.26Z"/><path class="cls-4" d="M94.84,315.58c6.12-1.15,12.48-2.7,18.49-1.06s11.31,7.93,9.33,13.84c-1.07,3.2-4,5.5-7.17,6.66a34.13,34.13,0,0,1-10,1.5l-25.33,1.26c-8.26.41-16.75.8-24.61-1.78-8.74-2.86-21.12-15.79-5.82-19,6.51-1.36,15.55,1.12,22.36.95A144.58,144.58,0,0,0,94.84,315.58Z"/><path class="cls-2" d="M94.73,100.58c-44.2,9-72.86,41.36-72.86,41.36s-7.81,51.44,15.57,109.74l-.15,74.2s57.72-8.28,122-1.74L155.91,196.6s16.46-27.06,13.67-70.24C169.58,126.36,140.44,106.79,94.73,100.58Z"/><path class="cls-2" d="M169.58,126.36C199.84,142.8,205.26,286,205.26,286l-87.73,13,28.23-165.35Z"/><path class="cls-4" d="M74.07,296.24c6.41-1.12,13.07-2.68,19.33-.89s11.72,8.41,9.59,14.56c-1.15,3.34-4.24,5.71-7.57,6.88s-6.91,1.32-10.44,1.46l-26.48,1c-8.64.33-17.51.64-25.69-2.14C23.72,314,10.93,300.38,27,297.21c6.81-1.35,16.23,1.35,23.35,1.24A150.43,150.43,0,0,0,74.07,296.24Z"/><path class="cls-2" d="M90.36,299s-59.92,22.23-82,7.9A121.3,121.3,0,0,1,.6,272.42q-.43-4.83-.55-9.92a187.51,187.51,0,0,1,.6-20q.42-5.09,1.11-10.37c.3-2.29.63-4.6,1-6.94a85.56,85.56,0,0,0,1-10c.14-3.24.13-6.42,0-9.55h0c0-1.93-.12-3.84-.21-5.74-.11-2.91-.25-5.79-.32-8.65-.06-2.22-.08-4.41,0-6.6,0-.52,0-1,0-1.56.52-13.55,4-26.85,18.57-41.11l20.07,46,.31.72,3.82,8.77L48.91,204l3,7,3.85,8.83h0Z"/><path class="cls-5" d="M60.81,197c-.17,1.91-.4,3.82-.7,5.71-.93.15-1.86.28-2.79.4q-4.18.54-8.41.82a152.46,152.46,0,0,1-45.32-4.11c-.11-2.91-.25-5.79-.32-8.65-.06-2.22-.08-4.41,0-6.6A142.32,142.32,0,0,0,31,188.14c3.74.11,7.39,0,11-.2,2.84-.18,5.63-.47,8.4-.84,3.56-.47,7.08-1.08,10.57-1.79A70.68,70.68,0,0,1,60.81,197Z"/><path class="cls-5" d="M60.94,208.61a40.24,40.24,0,0,1-2.31,6.22q-1.1,2.38-2.09,4.82l-.74.12h0c-2,.34-4.06.59-5.94.85a90.65,90.65,0,0,1-19.55.62,92.86,92.86,0,0,1-26.55-6.09c.14-3.24.13-6.42,0-9.55A87.74,87.74,0,0,0,31.15,212a89.81,89.81,0,0,0,18-.52c.92-.13,1.84-.31,2.77-.52C54.92,210.27,58,209.27,60.94,208.61Z"/><path class="cls-6" d="M88.72,3.84c20.31-9.5,65.61-1.72,71.87,27.28,0,0-32.23,30.11-43.81,33.22a96.61,96.61,0,0,1-22.89,3.07c-3.13.07-8.18.9-11.13-.24-2.05-.79-6.41,2.75-7.23.77C65.82,44.47,75.33,10.09,88.72,3.84Z"/><path class="cls-7" d="M127.37,76.8v40.37a23.83,23.83,0,0,1-47.66,0V76.8Z"/><path class="cls-8" d="M127.37,76.8v40.37c-21.39,0-39.24-20.06-43-40.37Z"/><path class="cls-5" d="M62.75,111.8l14-16.92s20.93,15.6,41.75,27.66l8.91-10.05v-8.81l5,.36,3.77,47.29-42.85-.62Z"/><path class="cls-7" d="M151.48,82.78c-3.76,9.07-8.31,16.66-13.13,20.37-5,3.87-49.27-5.38-53.91-15,0-.1-.09-.2-.14-.31C79.9,77.47,84.67,28,94.72,14.05c15-20.78,59.42,2.21,64.78,13.64C163.92,37.13,159.53,63.36,151.48,82.78Z"/><path class="cls-7" d="M88.8,67.73c3.36-18.9-8.13-24.33-17-21.44-7.86,2.55-15.61,12.3-9.54,23.37C71.5,86.62,86.28,81.91,88.8,67.73Z"/><path class="cls-8" d="M72.06,58.34a4.16,4.16,0,0,1,4.3-1.29,6,6,0,0,1,3.83,3,9.64,9.64,0,0,1,1.21,4.63A21.85,21.85,0,0,1,81,69.16l0,.15a1.21,1.21,0,0,1-1.41,1,1.23,1.23,0,0,1-1-1,4,4,0,0,0-2.27-2.81,4.77,4.77,0,0,0-4.26.39,4.62,4.62,0,0,1,4.7-2,5.42,5.42,0,0,1,4.21,3.83l-2.4.13c.25-2.83.54-5.45-.4-7.7a5.23,5.23,0,0,0-2.27-2.65A4.27,4.27,0,0,0,72.06,58.34Z"/><path class="cls-6" d="M141,76.33c-3-2.65-5.35-6.2-9.23-7.23-2.57-.67-5.33,0-7.93-.61-2.79-.62-5.15-2.55-8-3.12-4-.81-7.81,1.62-11.83,2.14-8.36,1.09-12.17-3.84-12.21-3.9-.91-2.35-.5-6.42-.36-8.92.22-3.92.79-7,.84-10.49a6.42,6.42,0,0,1,1-3.36l0,0C94.46,39,96.08,37.24,96,35.1a9.32,9.32,0,0,0-1.38-3.63A25.41,25.41,0,0,1,91.87,17.4c-.09.89-7.62,5.69-8.7,6.81a41.35,41.35,0,0,0-7,9.66c-1.29,2.46-1.47,11.7-1.47,11.7,8-.41,9.82,3.12,10.54,7.33q-.59,12.87-1.18,25.75a46,46,0,0,0,.23,9.17c0,.11.09.21.14.31,4.64,9.64,48.89,18.89,53.91,15,4.82-3.71,11.07-11.69,16-28C152.57,75.67,146.37,81.09,141,76.33Z"/><path class="cls-3" d="M77.48,28.48c1.2-.2,2.35-.28,3.48-.36S83.21,28,84.33,28s2.23-.06,3.37-.06a34.8,34.8,0,0,1,3.49.12,11,11,0,0,1-3.28,1.44,16.15,16.15,0,0,1-3.52.5,15.62,15.62,0,0,1-3.54-.28A10.71,10.71,0,0,1,77.48,28.48Z"/><path class="cls-3" d="M75.14,34.12c1.55.06,3,.11,4.46.07a35.66,35.66,0,0,0,4.27-.39,34.12,34.12,0,0,0,4.2-.89c1.4-.38,2.78-.86,4.25-1.37a11.45,11.45,0,0,1-3.68,2.83,14.94,14.94,0,0,1-4.47,1.41,14.76,14.76,0,0,1-4.69,0A11.35,11.35,0,0,1,75.14,34.12Z"/><path class="cls-9" d="M105,57.34c1.62,2,1.89,4.95.37,6.61-3.23,3.53-12.33.3-12.06-5.2S101.72,53.21,105,57.34Z"/><path class="cls-9" d="M150.17,66.73c2,1.29,3.1,3.92,2.22,6-1.85,4.4-10.86,4.63-12.2-.56S146.05,64.08,150.17,66.73Z"/><path class="cls-10" d="M109.63,45.57c-5.88,0-5.88,9.12,0,9.12S115.51,45.57,109.63,45.57Z"/><path class="cls-6" d="M110.28,46.53c-4.47-1.28-6.45,5.65-2,6.93S114.75,47.8,110.28,46.53Z"/><path class="cls-10" d="M144,55c-5.87,0-5.88,9.12,0,9.12S149.92,55,144,55Z"/><path class="cls-6" d="M143.81,55.78c-4.47-1.28-6.45,5.65-2,6.93S148.28,57.06,143.81,55.78Z"/><path class="cls-8" d="M138.36,37.53A63,63,0,0,0,134.6,52a57,57,0,0,0,0,14.76v.06a1,1,0,0,1-1.17,1.11c-2-.35-3.9-.7-5.85-1.11s-3.88-.84-5.8-1.38c2,0,4,0,6,.11s4,.23,6,.37l-1.16,1.18a40,40,0,0,1-.21-15.45A34.56,34.56,0,0,1,138.36,37.53Z"/><path class="cls-6" d="M105.3,35.9a8.85,8.85,0,0,1,3.69-4,12.24,12.24,0,0,1,10.51-.82,8.83,8.83,0,0,1,4.26,3.36c-1.89.22-3.43.27-4.93.39l-4.3.3-4.3.36C108.73,35.64,107.19,35.82,105.3,35.9Z"/><path class="cls-6" d="M143,39.22a8.12,8.12,0,0,1,4.94-.16,10.81,10.81,0,0,1,4.31,2.28,10.39,10.39,0,0,1,2.9,4,7.42,7.42,0,0,1,.38,5c-1.41-1.07-2.46-2-3.5-2.8L149.11,45c-1-.83-1.9-1.67-2.89-2.58S144.19,40.54,143,39.22Z"/><path class="cls-6" d="M104.84,47.82a4.57,4.57,0,0,1,2.36-2.2,5.81,5.81,0,0,1,3.09-.41,5.74,5.74,0,0,1,2.89,1.31,4.14,4.14,0,0,1,1.51,2.9v.1a.1.1,0,0,1-.1.1.07.07,0,0,1-.07,0,8.37,8.37,0,0,0-4.58-2,10.64,10.64,0,0,0-5,.45.11.11,0,0,1-.13-.07.17.17,0,0,1,0-.07Z"/><path class="cls-6" d="M140.63,56.26a3.64,3.64,0,0,1,2.49-1.73,4.79,4.79,0,0,1,5.09,2.26,3.78,3.78,0,0,1,.46,3l0,.1a.1.1,0,0,1-.12.07.07.07,0,0,1-.06,0,7.92,7.92,0,0,0-3.41-2.82,7,7,0,0,0-4.38-.56.1.1,0,0,1-.11-.08.08.08,0,0,1,0-.07Z"/><path class="cls-7" d="M114,69.41a17,17,0,0,0,2.83,2.65,12.39,12.39,0,0,0,3.2,1.67,12.25,12.25,0,0,0,3.55.64,16.9,16.9,0,0,0,3.86-.35,6.91,6.91,0,0,1-3.73,1.91,8.43,8.43,0,0,1-7.93-2.73A6.89,6.89,0,0,1,114,69.41Z"/><path class="cls-6" d="M53.89,228.64C55.75,220.75,57.74,212.9,59,205c.32-2,.5-4,.73-6s.37-4,.42-6a66,66,0,0,0-.71-11.93,49.88,49.88,0,0,0-3.09-11.47,41.06,41.06,0,0,0-2.59-5.34,46.5,46.5,0,0,0-3.37-4.88,42.86,42.86,0,0,0-4.1-4.32,36.44,36.44,0,0,0-4.75-3.61,33.09,33.09,0,0,0-5.33-2.74,34.52,34.52,0,0,0-5.81-1.65,28.68,28.68,0,0,1,6,1.15A34.19,34.19,0,0,1,42,150.59a38.28,38.28,0,0,1,5.11,3.47,40,40,0,0,1,4.43,4.3,41.66,41.66,0,0,1,3.68,5,43.48,43.48,0,0,1,2.84,5.51,50.35,50.35,0,0,1,3.31,11.9A64,64,0,0,1,62,193.05a56.63,56.63,0,0,1-.57,6.11c-.26,2-.52,4.06-.93,6.05A172.89,172.89,0,0,1,53.89,228.64Z"/><path class="cls-6" d="M19.21,292.14a28.74,28.74,0,0,1,1-5.19A30.79,30.79,0,0,1,22,282,35.59,35.59,0,0,1,27.83,273a36.52,36.52,0,0,1,8.24-6.87,34.18,34.18,0,0,1,9.94-4.1l5.13-1.21-4.37,2.9a64.64,64.64,0,0,0-10,7.94,39.86,39.86,0,0,0-4.16,4.82,27.28,27.28,0,0,0-3.11,5.6,22.87,22.87,0,0,1,2.49-6,32.67,32.67,0,0,1,3.84-5.3,55.16,55.16,0,0,1,9.84-8.6l.75,1.69a35.9,35.9,0,0,0-9.36,4,39.53,39.53,0,0,0-8,6.38A40.41,40.41,0,0,0,23,282.47a41.73,41.73,0,0,0-2.22,4.68A39,39,0,0,0,19.21,292.14Z"/><path class="cls-6" d="M67.85,116.64a68.82,68.82,0,0,1,4.94,5.61c1.57,1.93,3,3.93,4.49,5.94s2.82,4.08,4.13,6.19a68.15,68.15,0,0,1,3.67,6.52,69,69,0,0,1-4.94-5.62c-1.57-1.93-3-3.92-4.49-5.93s-2.82-4.08-4.13-6.2A72.6,72.6,0,0,1,67.85,116.64Z"/><path class="cls-4" d="M77.13,173.2A72.45,72.45,0,0,0,78.82,204c.54,1.95,1.12,4.17,0,5.86-.86,1.33-2.49,1.89-4,2.51-14.28,6-18.46,26.73-9.65,39.49s27,16.93,41.68,12.08,26.07-17.21,32.91-31.13c12.86-26.16,10.16-59-5.39-83.44-7.37-11.57-18.65-22.43-32.84-15C87.92,141.5,79.49,158.63,77.13,173.2Z"/><path class="cls-6" d="M299.68,96.79c-2.94-4.6-9.51-6.83-14.25-4.13a7.49,7.49,0,0,0-4.72-11.15,16.35,16.35,0,0,0,2.41-16.3c-2.2-5.15-5.77-7.88-9.82-8.81.81-5.28-1.44-11.07-6-13.83-3-1.82-6.84-2.34-9.38-4.79-1.71-1.65-2.59-4-3.88-5.93a16.45,16.45,0,0,0-17.3-6.76,14.87,14.87,0,0,0-7.66,4.64c-.59-.33-1.18-.64-1.8-.93-8.47-4-19.37-3.2-26.29,3.1-2.77,2.54-4.87,6.17-4.71,9.86a21.74,21.74,0,0,0-12.71,8.84c-5,7.54-5,17.76-1.15,25.93a13.42,13.42,0,0,0,4.46,5.39A7.33,7.33,0,0,0,181.63,87a8.59,8.59,0,0,0,.91,6A13.32,13.32,0,0,0,173,99.94c-2.83,5.61-1.38,12.82,2.77,17.54a20.3,20.3,0,0,0,7.83,5.4,14.9,14.9,0,0,0,1.88,6.82c2.13,4,6.32,6.36,10.59,7.88a12.44,12.44,0,0,0,3.2,8.92c10.46,11.55,31.2,9.4,42.25.3a25.36,25.36,0,0,0,8.15-11.42c1-.12,2-.27,2.93-.46a33.21,33.21,0,0,0,10.81,7c5.31,2,11.34,2.64,16.69.69,8.62-3.15,13.9-12.91,13-22,0-.27-.07-.53-.1-.79a23.38,23.38,0,0,0,6.6-7.37C302.22,107.6,302.61,101.39,299.68,96.79Z"/><path class="cls-11" d="M179.54,173.87s.14,55.7-1.26,56.11-47.77,10.7-47.77,10.7l-2.47,29,83.15,8.5-1.79-92.51Z"/><path class="cls-11" d="M219.57,185.66c-3.89,6.08-9.21,11.53-16,14.05-10.38,3.85-22.85-.3-29.79-8.94-10-12.43-8.3-32,.84-44.49a23.8,23.8,0,0,1,10.43-8.23h0a26.54,26.54,0,0,1,12.09-1.67,36.1,36.1,0,0,1,13.07,3.81,28.59,28.59,0,0,1,15.87,23.75C226.51,171.61,223.72,179.18,219.57,185.66Z"/><path class="cls-6" d="M267.75,244.38l4.39,22.5s34.15,22.58,36.77,85.95H206.27V244.38Z"/><path class="cls-11" d="M303.24,176.56c-4.73,18.6-12.72,44.32-25.07,67.91a229.26,229.26,0,0,1,20.71,45.81S275.59,303.5,241,306.35a154.64,154.64,0,0,1-52.65-4.65l3.91-84.84s-11.32-12.78-6.16-65.46a91.15,91.15,0,0,1,9.31-5.24c8.7-4.38,23.76-11,46.41-17.71,0,0,21.6,1.4,48,12.42a167.24,167.24,0,0,1,19.07,9.37S307.24,160.87,303.24,176.56Z"/><path class="cls-12" d="M253.11,183.74c-5.16,0-7.11-5-5.88-8.73q5.82,0,11.62-.35C260.34,178.46,258.43,183.74,253.11,183.74Z"/><path class="cls-12" d="M182.9,156.34c-8.31,0-8.31,12.9,0,12.9S191.21,156.34,182.9,156.34Z"/><path class="cls-12" d="M273.48,194c-8.31,0-8.32,12.9,0,12.9S281.79,194,273.48,194Z"/><path class="cls-12" d="M191.29,145.1c-4.42,0-6.49-3.64-6.22-7h0a26.54,26.54,0,0,1,12.09-1.67C198.4,140.14,196.44,145.1,191.29,145.1Z"/><path class="cls-12" d="M296.67,283.73a6.17,6.17,0,0,1-3.36.9c-7.85,0-8.28-11.52-1.29-12.78C293.61,275.58,295.19,279.57,296.67,283.73Z"/><path class="cls-12" d="M269.26,301.49c-3.62,1-7.52,1.85-11.67,2.62-2-3.82-.16-9.71,5.46-9.71C267.49,294.4,269.55,298.07,269.26,301.49Z"/><path class="cls-12" d="M279.71,223.72c-8.31,0-8.31,12.9,0,12.9S288,223.72,279.71,223.72Z"/><path class="cls-12" d="M248.73,215.55c-8.31,0-8.31,12.9,0,12.9S257.05,215.55,248.73,215.55Z"/><path class="cls-4" d="M296.67,283.73c.77,2.14,1.51,4.33,2.21,6.55,0,0-11.21,6.36-29.62,11.21-3.62,1-7.52,1.85-11.67,2.62A160.91,160.91,0,0,1,241,306.35c-3-10-2-21.42.11-31.89,3.4-16.85,9.09-33.14,15.54-49,7.69-19,8.43-63.13,34.19-61.76.39,0,12,12.86,12.42,12.9a348.5,348.5,0,0,1-17.48,52s0,0,0,0q-1.65,3.78-3.43,7.54-2,4.21-4.16,8.36A228.38,228.38,0,0,1,292,271.85C293.61,275.58,295.19,279.57,296.67,283.73Z"/><path class="cls-7" d="M289.84,140.87A39.47,39.47,0,0,0,285,157.16c-.27,3.9,0,8.13-2.27,11.34-2.71,3.92-8,4.85-12.76,5.32-2.55.25-5.11.47-7.66.63a248.54,248.54,0,0,1-43.73-.86c-10.12-1.1-19.25-4.34-22-15.14a42.49,42.49,0,0,1-1.13-12.29c8.7-4.38,23.76-11,46.41-17.71,0,0,16,1,37.38,8.38C282.61,138,286.18,139.34,289.84,140.87Z"/><path class="cls-8" d="M289.84,140.87A39.47,39.47,0,0,0,285,157.16c-.27,3.9,0,8.13-2.27,11.34-2.71,3.92-8,4.85-12.76,5.32-2.55.25-5.11.47-7.66.63a49.43,49.43,0,0,1,9.14-30.19,29.76,29.76,0,0,1,7.77-7.43C282.61,138,286.18,139.34,289.84,140.87Z"/><path class="cls-7" d="M224,104.34v30.52l0,7.78a15.92,15.92,0,0,0,31.83-.08l0-38.3-8.72,0h-.25l-22.6.07Z"/><path class="cls-8" d="M224,104.34v29.87c12.3.63,30.79-7.85,28.06-29.95l-5.22,0-22.6.07Z"/><path class="cls-11" d="M196.27,127.09a6.12,6.12,0,0,0,7.61.84c6.44-4.05,4.09-14.68-2.18-15.21S191.17,122.08,196.27,127.09Z"/><path class="cls-7" d="M201.77,121.63c13.57,6.23,36.4,3.55,45.82-2.55,12-7.73,17-67.73-11.44-75.71-23.62-6.65-44.56,5-45.31,34.82C190.35,98.08,196.86,119.37,201.77,121.63Z"/><path class="cls-9" d="M235,90.39c-1.76,1.77-2.32,4.56-1,6.31,2.73,3.72,11.8,1.58,12.12-3.73S238.58,86.78,235,90.39Z"/><path class="cls-9" d="M196,94.41A4.89,4.89,0,0,0,193.6,100c1.47,4.37,9.82,5.31,11.36.44S200,92.2,196,94.41Z"/><path class="cls-7" d="M249,97.18c5.38-14.92,14.81-14.79,20.91-9.52s5.76,16.09.53,21.48C259.61,120.27,243.73,111.73,249,97.18Z"/><path class="cls-8" d="M266.29,97.67A3.76,3.76,0,0,0,263.21,95a5.49,5.49,0,0,0-4.34,1.09,8.8,8.8,0,0,0-2.73,3.41,19.06,19.06,0,0,0-1.27,3.85l0,.15a1.17,1.17,0,0,0,.87,1.4,1.19,1.19,0,0,0,1.24-.49,3.54,3.54,0,0,1,2.85-1.48,4.28,4.28,0,0,1,3.38,1.85,4.18,4.18,0,0,0-3.14-3.45,5,5,0,0,0-5,1.62l2.07,1.07c.84-2.44,1.56-4.69,3.15-6.2a4.65,4.65,0,0,1,2.8-1.36A3.87,3.87,0,0,1,266.29,97.67Z"/><path class="cls-10" d="M232.37,79A4.42,4.42,0,1,1,234,87.65,4.42,4.42,0,1,1,232.37,79Z"/><path class="cls-6" d="M233.26,79.66c4.42-.75,5.58,6.12,1.15,6.86S228.83,80.4,233.26,79.66Z"/><path class="cls-10" d="M201,83.75c5.21-2.24,8.69,5.85,3.47,8.09S195.79,86,201,83.75Z"/><path class="cls-6" d="M203.23,83.9c4.42-.74,5.58,6.13,1.15,6.87S198.81,84.65,203.23,83.9Z"/><path class="cls-8" d="M210.43,67a60.77,60.77,0,0,1,2,14.29,55,55,0,0,1-1.59,14.15v.06a1,1,0,0,0,1,1.19c1.91-.12,3.82-.24,5.73-.43s3.82-.39,5.72-.69c-1.93-.26-3.85-.39-5.77-.55s-3.85-.21-5.77-.29l1,1.25a38.41,38.41,0,0,0,1.87-14.79A33.38,33.38,0,0,0,210.43,67Z"/><path class="cls-6" d="M243.53,69.05a8.5,8.5,0,0,0-3.12-4.2,11.72,11.72,0,0,0-4.78-2.09,11.5,11.5,0,0,0-5.22.17A8.53,8.53,0,0,0,226,65.69c1.79.41,3.27.63,4.69.91l4.1.75,4.08.81C240.26,68.43,241.72,68.77,243.53,69.05Z"/><path class="cls-6" d="M205.77,68.11a7.79,7.79,0,0,0-4.72-.7,10.59,10.59,0,0,0-4.38,1.72,10.24,10.24,0,0,0-3.21,3.49,7.18,7.18,0,0,0-.9,4.72c1.47-.86,2.57-1.6,3.66-2.29L199.31,73c1-.68,2-1.39,3.05-2.15S204.51,69.24,205.77,68.11Z"/><path class="cls-6" d="M238.16,81.65a4.36,4.36,0,0,0-2-2.36,5.51,5.51,0,0,0-5.84.22,4,4,0,0,0-1.76,2.62l0,.09a.1.1,0,0,0,.08.11.08.08,0,0,0,.08,0,8.17,8.17,0,0,1,4.61-1.42,10.29,10.29,0,0,1,4.77,1,.1.1,0,0,0,.13,0,.11.11,0,0,0,0-.08Z"/><path class="cls-6" d="M206.22,84.71A3.46,3.46,0,0,0,204,82.78a4.67,4.67,0,0,0-2.84,0,4.85,4.85,0,0,0-2.3,1.62,3.71,3.71,0,0,0-.76,2.8l0,.1a.09.09,0,0,0,.1.08l.06,0A7.53,7.53,0,0,1,201.89,85a6.75,6.75,0,0,1,4.26-.07.1.1,0,0,0,.12-.06.08.08,0,0,0,0-.07Z"/><path class="cls-6" d="M209,102.81a37.15,37.15,0,0,0,8.36,8.1,12.52,12.52,0,0,0,3.83,1.69c3.21.7,6.34-.67,8.39-6.55a38.69,38.69,0,0,0,1.76-8.13Z"/><path class="cls-10" d="M231.32,97.92s-9.11,11.54-22.34,4.89Z"/><path class="cls-8" d="M217.34,110.91a12.52,12.52,0,0,0,3.83,1.69c3.21.7,6.34-.67,8.39-6.55C229.56,106.05,224.27,105,217.34,110.91Z"/><path class="cls-6" d="M216.44,49.83c2.4-.1,5.21-1.13,6.94.54.92.87,1.15,2.21,1.58,3.4a9.51,9.51,0,0,0,18.41-2.24,7.48,7.48,0,1,0,10.16,10.74c-2.26-1.09-5.06.66-6,3s-.58,5-.2,7.43c.51,3.28,1,6.56,1.52,9.84.29,1.86.67,3.9,2.12,5.1,1.84,1.52,4.77,1,6.55-.6s2.66-4,3.28-6.27a41.36,41.36,0,0,0-2.22-28.09,35,35,0,0,0-20.92-18.52c-8.5-2.6-17.28-1.12-25,3-2.54,1.35-4.8,2.59-4.46,5.8C208.56,46.7,212.78,50,216.44,49.83Z"/><path class="cls-3" d="M238.58,33.54A7.61,7.61,0,0,1,244,32.36,8.31,8.31,0,0,1,249.09,35a8.9,8.9,0,0,1,.4,11.14l-1-1.4a11,11,0,0,1,5.69.08,8.32,8.32,0,0,1,2.56,1.24,5.91,5.91,0,0,1,1.81,2.08A7.82,7.82,0,0,0,254,46a11.77,11.77,0,0,0-5,.47.89.89,0,0,1-1-1.33l0-.06a7.94,7.94,0,0,0-.31-8.93,8,8,0,0,0-4-2.65A8.87,8.87,0,0,0,238.58,33.54Z"/><path class="cls-3" d="M258.32,67.56a13.54,13.54,0,0,0,3.86,2.13,10.76,10.76,0,0,0,4.06.61,11.09,11.09,0,0,0,4-1,13.72,13.72,0,0,0,3.65-2.48A7.35,7.35,0,0,1,271,70.66a8.73,8.73,0,0,1-4.68,1.64,8.85,8.85,0,0,1-4.82-1.2A7.37,7.37,0,0,1,258.32,67.56Z"/><path class="cls-3" d="M276.52,113.17a9,9,0,0,0,4.05.68,8,8,0,0,0,3.64-1.16,7.69,7.69,0,0,0,3.45-6.32v-.1a.87.87,0,0,1,.88-.86.77.77,0,0,1,.3.06,6.78,6.78,0,0,0,3.75.25,5.2,5.2,0,0,0,3.34-2.14,4,4,0,0,1-1.05,2,5.64,5.64,0,0,1-1.91,1.32,7,7,0,0,1-4.7.31l1.18-.9a8.24,8.24,0,0,1-4.35,8,7.72,7.72,0,0,1-4.57.8A6.86,6.86,0,0,1,276.52,113.17Z"/><path class="cls-10" d="M255.39,123.23a6.12,6.12,0,0,0,7.49,1.6c6.81-3.38,5.54-14.19-.64-15.35S250.81,117.74,255.39,123.23Z"/><path class="cls-11" d="M321.81,158.29c0,16.45-.37,31.81-.88,45.22q-.18,4.78-.38,9.21c-1.16,25.5-2.7,42-2.7,42a260.22,260.22,0,0,1-43.79,29.85c-1.36.72-2.73,1.43-4.11,2.11h0c-10.83,5.38-22.4,9.76-33.53,11.36l-10.27-33.75,35.32-20.44h0l7.2-4.18h0l16.37-9.47-6.9-60.11Z"/><path class="cls-12" d="M293.32,187.15c-8.31,0-8.32,12.9,0,12.9S301.63,187.15,293.32,187.15Z"/><path class="cls-12" d="M320.93,203.51q-.18,4.78-.38,9.21a6,6,0,0,1-4.32,1.64c-8.32,0-8.31-12.9,0-12.9A5.92,5.92,0,0,1,320.93,203.51Z"/><path class="cls-12" d="M303.55,225.57c-8.32,0-8.32,12.9,0,12.9S311.86,225.57,303.55,225.57Z"/><path class="cls-12" d="M292.13,251.9c-8.32,0-8.32,12.9,0,12.9S300.44,251.9,292.13,251.9Z"/><path class="cls-12" d="M267.38,252.42c-5.1,0-7.07-4.85-5.92-8.6h0l7.2-4.18h0C275.66,240.91,275.23,252.42,267.38,252.42Z"/><path class="cls-12" d="M275.36,281.73q-4.78,2.07-9.64,3.92c-4.5-3-3.31-11.87,3.56-11.87C274.09,273.78,276.12,278.09,275.36,281.73Z"/><path class="cls-11" d="M323.77,174.52a48.92,48.92,0,0,1-3.74,5.12h0a34.82,34.82,0,0,1-9.5,8.11,24.28,24.28,0,0,1-3.57,1.69c-10.66,4.07-23.36,0-30.59-8.64-.15-.17-.28-.34-.42-.51a30.25,30.25,0,0,1-4.6-8.2c-.24-.62-.45-1.25-.65-1.89a37.59,37.59,0,0,1-1.63-9.83,44.14,44.14,0,0,1,8.14-26.95c9.1-12.47,24.39-13.15,37.2-6.73a29.76,29.76,0,0,1,7.69,5.53,28.93,28.93,0,0,1,5.62,7.72,28.39,28.39,0,0,1,3.06,11.62C331.14,159.65,328.16,167.66,323.77,174.52Z"/><path class="cls-12" d="M290.76,133.54c-8.31,0-8.31,12.9,0,12.9S299.08,133.54,290.76,133.54Z"/><path class="cls-12" d="M320,179.64h0a34.82,34.82,0,0,1-9.5,8.11c-4.13-3.24-2.84-11.64,3.88-11.64A5.84,5.84,0,0,1,320,179.64Z"/><path class="cls-12" d="M327.72,140a5.94,5.94,0,0,1-6.11,5.15c-8.32,0-8.31-12.9,0-12.9a3.91,3.91,0,0,1,.49,0A28.93,28.93,0,0,1,327.72,140Z"/><path class="cls-12" d="M301.94,156.34c-8.31,0-8.31,12.9,0,12.9S310.26,156.34,301.94,156.34Z"/><path class="cls-12" d="M272.67,172.22a6.89,6.89,0,0,1-1.32-.12c-.24-.62-.45-1.25-.65-1.89a37.59,37.59,0,0,1-1.63-9.83,6.12,6.12,0,0,1,3.6-1.06C281,159.32,281,172.22,272.67,172.22Z"/><path class="cls-4" d="M299.48,174.79c-1-3-.79-6.28-.28-9.41a26.27,26.27,0,0,1,3.87-10.8c2.2-3.17,5.73-5.6,9.58-5.69,4.36-.11,8.45,2.87,10.29,6.82a16.52,16.52,0,0,1,.08,12.73,29.86,29.86,0,0,1-7.45,10.61,12.19,12.19,0,0,1-4.54,3.1C306.76,183.53,300.81,178.64,299.48,174.79Z"/><path class="cls-6" d="M254.51,289.58c3-1.48,6-2.77,9-4,.75-.32,1.52-.59,2.27-.92l2.25-1,4.53-1.9c1.52-.6,3-1.21,4.54-1.86l4.53-1.9c3-1.26,6.05-2.53,9.15-3.7a78.48,78.48,0,0,1-8.48,5.11,92.51,92.51,0,0,1-9,4.19c-3.08,1.18-6.1,2.52-9.28,3.43S257.74,288.89,254.51,289.58Z"/><path class="cls-6" d="M282,188.45c.61,3.45,1.06,6.91,1.48,10.38s.76,6.93,1,10.41.53,6.95.73,10.43.34,7,.39,10.46v.36l-.28.15c-4.19,2.28-8.4,4.53-12.65,6.71,4-2.61,8.05-5.14,12.11-7.65l-.27.52c-.47-3.47-.83-6.94-1.16-10.41s-.6-6.95-.82-10.43-.4-7-.51-10.45S281.85,192,282,188.45Z"/><path class="cls-6" d="M306.72,244.38a45.66,45.66,0,0,0-9.43-9.45,22.64,22.64,0,0,0-5.78-2.93,21.74,21.74,0,0,0-6.37-1.05l.33-1.88a23.06,23.06,0,0,1,7.55,4.71,29.81,29.81,0,0,1,5.42,6.87,49.14,49.14,0,0,0-6.3-5.81,25.81,25.81,0,0,0-7.31-4,1,1,0,0,1,.3-1.87h0a20.57,20.57,0,0,1,7,1.13,21,21,0,0,1,6.17,3.39A31.35,31.35,0,0,1,306.72,244.38Z"/><path class="cls-6" d="M288.55,189.45a45,45,0,0,0,8.36.07,39.25,39.25,0,0,0,8.06-1.58,39.71,39.71,0,0,0,7.56-3.18,44.86,44.86,0,0,0,6.9-4.72,23.17,23.17,0,0,1-6.08,6.05,28.4,28.4,0,0,1-7.8,3.76,28.09,28.09,0,0,1-8.58,1.22A23.18,23.18,0,0,1,288.55,189.45Z"/><path class="cls-6" d="M307.14,178.35c-.17-1.29-.21-2.52-.27-3.74l-.12-3.61-.09-3.62c0-1.22,0-2.44.06-3.75a12.29,12.29,0,0,1,1.49,3.53,16.74,16.74,0,0,1,.54,3.78,17.32,17.32,0,0,1-.32,3.8A12.38,12.38,0,0,1,307.14,178.35Z"/><path class="cls-6" d="M311.43,178.4a39.15,39.15,0,0,0,3.23-4.72,31.08,31.08,0,0,0,3.65-10.41,40.36,40.36,0,0,0,.44-5.69,14.39,14.39,0,0,1,1.12,5.81,18.14,18.14,0,0,1-3.93,11.17A14.32,14.32,0,0,1,311.43,178.4Z"/><path class="cls-7" d="M83.43,234.09c-3.13-3.83-11.71-6.78-15.23-4.46-2.31,1.52-2,5.54,6,10.31Z"/><path class="cls-6" d="M208.43,163.71c8.88.47,17.46,3.6,25.27,7.86,4.57,2.49,9.07,5.52,11.78,10,2.61,4.29,3.29,9.45,3.69,14.46.94,11.91.39,24.62-6.06,34.67-2.43,3.78-6.45,7.35-10.87,6.57a13,13,0,0,1-4-1.66A89,89,0,0,1,198.53,208a90.71,90.71,0,0,1-9.69-18.58c-1.57-4.13-6.38-14.55-4.24-18.75C187.81,164.43,202.57,163.4,208.43,163.71Z"/><path class="cls-6" d="M172.53,187v.56a3.36,3.36,0,0,0-.16-.33,6.36,6.36,0,0,0-2.61-2.45,9.19,9.19,0,1,0-7.49,16.73c-18.41,12.64,6.45,32.88,17,12.63,2.67-5.1,6.21-10.15,4.92-15.77A15.11,15.11,0,0,0,172.53,187Z"/><path class="cls-7" d="M219.1,266.29a14.65,14.65,0,0,1-15-14.24l0-1.1v-.34l-.16-5.72v-.07l-.18-26.7V217l0-1.12h.24l20.78-.56h.23l8-.22.4,36.18A14.62,14.62,0,0,1,219.1,266.29Z"/><path class="cls-8" d="M204,251v-.34l-.16-5.72v-.07l-.18-26.7,23.86.8S233.33,251.26,204,251Z"/><path class="cls-7" d="M229.74,220.45c-10,27-36.49,31.46-49.45,18.87a21.43,21.43,0,0,1-3.75-4.81,82.22,82.22,0,0,1-4.91-9.93c-.71-1.7-1.33-3.39-1.88-5.07-8.05-24.73.93-44.83,21.9-49.11C222.82,164.05,237.62,199.24,229.74,220.45Z"/><path class="cls-8" d="M183.2,200.36a53.68,53.68,0,0,1,4.34,11.81,48.81,48.81,0,0,1,1.22,12.36v.05a.83.83,0,0,0,.82.87,1.07,1.07,0,0,0,.25,0c1.61-.46,3.21-.91,4.81-1.41s3.18-1,4.75-1.64c-1.69.13-3.35.37-5,.58s-3.31.52-5,.81l1.07.89a33.58,33.58,0,0,0-1.11-13A29.07,29.07,0,0,0,183.2,200.36Z"/><path class="cls-9" d="M183.47,224.17c2,.89,3.31,3,2.81,4.82-1.07,3.88-9.13,4.95-11,.72S179.4,222.35,183.47,224.17Z"/><path class="cls-9" d="M216.6,210.39c2.14-.39,4.43.58,5.05,2.37,1.33,3.8-4.7,9.26-8.67,6.86S212.22,211.2,216.6,210.39Z"/><path class="cls-6" d="M214.21,193a7.47,7.47,0,0,0-3.43-3,10.23,10.23,0,0,0-4.46-.92,10.09,10.09,0,0,0-4.41,1.1,7.35,7.35,0,0,0-3.29,3.17c1.6,0,2.89-.06,4.16-.08l3.63-.11,3.63,0C211.31,193,212.61,193,214.21,193Z"/><path class="cls-2" d="M234.8,204c6-37.82-42.63-44.9-59.91-24.46C174.89,179.52,211.7,172.21,234.8,204Z"/><path class="cls-7" d="M222.3,212.34c-4.34-13.13,2.21-18.12,9.22-17.79s12.62,7.95,11.93,14.46C242,222.47,226.53,225.15,222.3,212.34Z"/><path class="cls-8" d="M234.8,204a3.35,3.35,0,0,0-3,.27,4,4,0,0,0-1.66,2.14c-.67,1.79-.36,3.83-.08,6.06l-2,0a4.36,4.36,0,0,1,3.26-3.18,3.65,3.65,0,0,1,3.79,1.48,3.77,3.77,0,0,0-3.37-.14,3.12,3.12,0,0,0-1.66,2.26,1,1,0,0,1-1.13.87,1,1,0,0,1-.86-.77l0-.14a16.23,16.23,0,0,1-.49-3.5,7.68,7.68,0,0,1,.82-3.72,4.82,4.82,0,0,1,3-2.53A3.29,3.29,0,0,1,234.8,204Z"/><path class="cls-10" d="M209.21,204.26c-5.79.6-5,8.24.79,7.64S215,203.66,209.21,204.26Z"/><path class="cls-6" d="M208.44,205.26c3.64-1.44,5.87,4.21,2.23,5.65S204.8,206.7,208.44,205.26Z"/><path class="cls-10" d="M179.8,215.24c-4.92.51-4.13,8.15.8,7.64S184.73,214.73,179.8,215.24Z"/><path class="cls-6" d="M180.13,216.1c3.64-1.44,5.87,4.2,2.24,5.64S176.5,217.54,180.13,216.1Z"/><path class="cls-6" d="M180.21,199.84a6.84,6.84,0,0,0-4-1.12,9.05,9.05,0,0,0-4,1,8.92,8.92,0,0,0-3.17,2.65,6.26,6.26,0,0,0-1.31,4c1.37-.59,2.4-1.1,3.43-1.58l2.89-1.43c1-.48,1.89-1,2.88-1.53S179,200.69,180.21,199.84Z"/><path class="cls-6" d="M213.54,205.86a3.83,3.83,0,0,0-1.95-1.88,5,5,0,0,0-2.6-.39,4.87,4.87,0,0,0-2.45,1.06,3.48,3.48,0,0,0-1.32,2.43v.08s0,.08.08.09l.06,0a7.1,7.1,0,0,1,3.89-1.62,9,9,0,0,1,4.22.44.08.08,0,0,0,.11-.05.06.06,0,0,0,0-.06Z"/><path class="cls-6" d="M182.83,216.24a3,3,0,0,0-2.22-1.25,4.11,4.11,0,0,0-2.43.51,4.26,4.26,0,0,0-1.66,1.81,3.25,3.25,0,0,0-.14,2.52l0,.08a.1.1,0,0,0,.11.05.08.08,0,0,0,0,0,6.7,6.7,0,0,1,2.63-2.65,5.93,5.93,0,0,1,3.62-.83.08.08,0,0,0,.09-.07s0,0,0-.06Z"/><path class="cls-6" d="M192.36,228.91a32,32,0,0,0,8.54,5.49,11,11,0,0,0,3.56.79c2.86.05,5.3-1.67,6-7a33.73,33.73,0,0,0,.11-7.25Z"/><path class="cls-10" d="M210.62,220.89s-5.81,11.43-18.26,8Z"/><path class="cls-8" d="M200.9,234.4a11,11,0,0,0,3.56.79c2.86.05,5.3-1.67,6-7C210.51,228.15,205.81,228.19,200.9,234.4Z"/><path class="cls-6" d="M214.87,189.83a5.36,5.36,0,0,0,2.8,3.39c.94.44,2.05.65,2.72,1.43,1,1.13.55,2.82.37,4.29-.22,1.79.06,3.79,1.54,4.93a2.79,2.79,0,0,0,3,.31c1.12-.64,1.24-1.81,1.32-2.9.16-1.88.31-4.25.46-6.13a37.41,37.41,0,0,0-6.93-8,9.31,9.31,0,0,0-4.55-.95C214.42,186.47,214.63,188.92,214.87,189.83Z"/><path class="cls-6" d="M223.34,170.55a17,17,0,0,0-10.73-3,12.13,12.13,0,0,0-1.8.33,8.19,8.19,0,0,0-.23-.81,12.08,12.08,0,0,0-4.15-5.35A16,16,0,0,0,196.29,158a10.45,10.45,0,0,0-9,5.32,7.86,7.86,0,0,0-.78,2.9c-13.63-4.47-23.35,5.45-20.48,19.23a9.78,9.78,0,0,0,16.07-3.41A11.63,11.63,0,0,0,198,188.62c2.47-1.12,4.64-3.07,7.33-3.44,3.16-.43,6.12,1.4,9.14,2.42a13.56,13.56,0,0,0,9.17.07,8.93,8.93,0,0,0,5.7-6.85C229.87,176.67,226.85,172.84,223.34,170.55Z"/><path class="cls-3" d="M199.81,171.51a6,6,0,0,1,4.21.69,6.76,6.76,0,0,1,3,3.37l-1.56-.29a8.56,8.56,0,0,1,7.21-3.1,7.93,7.93,0,0,1,3.75,1.25,7,7,0,0,1,2.56,2.8,10.83,10.83,0,0,0-3.08-1.75,9.13,9.13,0,0,0-3.28-.53,8.65,8.65,0,0,0-5.77,2.55l-1.12,1.14-.45-1.43a6.55,6.55,0,0,0-2-3A7.62,7.62,0,0,0,199.81,171.51Z"/><path class="cls-6" d="M248.86,223.73a13.5,13.5,0,0,0-10,22.05c-3.52,1.38-7.24,3.66-7.59,7.42-.51,5.28,5.47,6.92,5.47,6.92s-4.3,4.05-1.12,11.37c1.84,4.22,6.75,6.16,11.33,6.57a20.08,20.08,0,0,0,11.7-2c3.51-2,6.17-5.72,6.06-9.74s-3.56-7.89-7.58-7.76a13.65,13.65,0,0,0,10.66-14.76,13.83,13.83,0,0,0-14.24-11.56,6.07,6.07,0,0,0,.06-6.16C252.47,224.21,251,223.67,248.86,223.73Z"/><path class="cls-6" d="M110.75,215s-49.36,23-50.1,51.33,10.58,86.54,10.58,86.54h105l-9.36-62.71s6.64-31.32,6-50.82C172.83,239.3,145.06,213.72,110.75,215Z"/><path class="cls-6" d="M172.83,239.3c13.56,10,28.66,41.48,28.66,41.48l-26.6,26.75-26.48-25.38Z"/><path class="cls-7" d="M120.53,249.27a17.42,17.42,0,0,0,17-17.8l0-1.3v-.41l-.16-6.8v-.08L136,191.12l0-1.33,0-1.34h-.28l-24.73.55h-.28l-9.54.19,1.63,43A17.4,17.4,0,0,0,120.53,249.27Z"/><path class="cls-8" d="M137.53,230.17v-.41l-.16-6.8v-.08L136,191.12l-16.51.36h-.09c-.07.12,0,.29-.17.33C98.37,199.64,116.69,230.23,137.53,230.17Z"/><path class="cls-6" d="M178.45,161.48a18,18,0,0,0-.36-16.09,17.47,17.47,0,0,0-13.15-9c-2.18-.25-4.44-.08-6.48-.9-3.3-1.33-5.17-4.86-8-7.08a11.92,11.92,0,0,0-16.33,2.09,15.83,15.83,0,0,0-18.79-4.13,16.06,16.06,0,0,0-8.43,13,14.86,14.86,0,0,0-13.08.94c-6.22,3.85-8.76,12.83-5.51,19.52a9.35,9.35,0,0,1,1.31,3.53c.08,2.25-1.85,3.92-3.09,5.76-3.54,5.27-1.18,13,3.63,17.14s11.32,5.49,17.56,6.21c18,2.06,30.84.1,45-6.65a13.09,13.09,0,0,0,1.79,2.29c5.94,6,16.6,2.94,18.74-6.59.06-.25.11-.51.15-.77a2.85,2.85,0,0,1,1.57-2.15C181.52,175.4,183.72,166.45,178.45,161.48Z"/><path class="cls-7" d="M104.22,200.71c16.87,25.62,45.41,23.93,55.85,7.76a22.71,22.71,0,0,0,2.76-5.89,89,89,0,0,0,2.71-11.48c.33-1.94.57-3.85.74-5.72,2.44-27.61-11.69-46.33-34.49-45.75C97.9,140.49,91,180.58,104.22,200.71Z"/><path class="cls-8" d="M147.73,168.71a57.22,57.22,0,0,0-1.68,13.3,51.59,51.59,0,0,0,1.7,13.13v.06a.89.89,0,0,1-.65,1.09,1.15,1.15,0,0,1-.26,0c-1.78-.09-3.56-.17-5.34-.31s-3.55-.31-5.32-.56c1.79-.27,3.57-.42,5.36-.6s3.56-.26,5.35-.36l-.9,1.18A35.68,35.68,0,0,1,144,182,31.14,31.14,0,0,1,147.73,168.71Z"/><path class="cls-9" d="M153.15,193.51c-1.84,1.39-2.72,3.9-1.76,5.67,2,3.77,10.66,2.95,11.63-1.9S156.94,190.64,153.15,193.51Z"/><path class="cls-9" d="M115.45,187.13c-2.32.1-4.46,1.66-4.68,3.67-.47,4.26,7.1,8.48,10.65,5S120.19,186.92,115.45,187.13Z"/><path class="cls-6" d="M113.76,168.45a8,8,0,0,1,2.83-4,10.94,10.94,0,0,1,4.41-2,10.73,10.73,0,0,1,4.85.08,7.85,7.85,0,0,1,4.18,2.5c-1.66.41-3,.64-4.35.91l-3.79.76-3.78.81C116.78,167.82,115.44,168.16,113.76,168.45Z"/><path class="cls-7" d="M110,190.52c1.36-14.68-6.63-18.29-13.83-16.27S85,185.52,87.24,192.11C91.94,205.75,108.68,204.83,110,190.52Z"/><path class="cls-8" d="M95,184.82a3.59,3.59,0,0,1,3.16-.43,4.35,4.35,0,0,1,2.25,1.83c1.11,1.7,1.28,3.89,1.53,6.27L104,192a4.61,4.61,0,0,0-4.14-2.52,3.89,3.89,0,0,0-3.58,2.45,4,4,0,0,1,3.46-1,3.31,3.31,0,0,1,2.27,1.94,1.08,1.08,0,0,0,2.09-.37v-.15a17.47,17.47,0,0,0-.33-3.75,8.16,8.16,0,0,0-1.75-3.67A5.11,5.11,0,0,0,98.37,183,3.5,3.5,0,0,0,95,184.82Z"/><path class="cls-10" d="M121.65,179c6.16-.76,7.17,7.36,1,8.12S115.49,179.75,121.65,179Z"/><path class="cls-6" d="M122.69,179.85c-4.12-.63-5.09,5.77-1,6.39S126.82,180.47,122.69,179.85Z"/><path class="cls-10" d="M154.82,183.35c5.23-.65,6.24,7.47,1,8.12S149.58,184,154.82,183.35Z"/><path class="cls-6" d="M154.68,184.32c-4.12-.62-5.09,5.77-1,6.4S158.8,184.94,154.68,184.32Z"/><path class="cls-6" d="M150.71,167.46a7.27,7.27,0,0,1,3.89-2.13,9.77,9.77,0,0,1,4.37.09,9.42,9.42,0,0,1,3.93,2,6.68,6.68,0,0,1,2.31,3.82c-1.56-.28-2.76-.57-3.94-.82l-3.35-.79c-1.09-.27-2.19-.56-3.35-.89S152.18,168.05,150.71,167.46Z"/><path class="cls-6" d="M117.54,181.69a4.06,4.06,0,0,1,1.58-2.42,5.29,5.29,0,0,1,2.6-1,5.13,5.13,0,0,1,2.8.52,3.74,3.74,0,0,1,2,2.2l0,.08a.09.09,0,0,1-.06.12h-.07a7.53,7.53,0,0,0-4.42-.75,9.61,9.61,0,0,0-4.28,1.47.08.08,0,0,1-.12,0,.07.07,0,0,1,0-.06Z"/><path class="cls-6" d="M151.91,185.11a3.26,3.26,0,0,1,2-1.82,4.3,4.3,0,0,1,2.63,0,4.41,4.41,0,0,1,2.16,1.47,3.41,3.41,0,0,1,.75,2.58v.1a.08.08,0,0,1-.1.07l-.06,0a6.94,6.94,0,0,0-3.36-2.12,6.21,6.21,0,0,0-3.95,0,.1.1,0,0,1-.12-.06.13.13,0,0,1,0-.06Z"/><path class="cls-6" d="M145.06,200.55a34.4,34.4,0,0,1-7.55,7.75A11.6,11.6,0,0,1,134,210c-3,.74-5.9-.45-8-5.85a36.4,36.4,0,0,1-1.84-7.51Z"/><path class="cls-10" d="M124.18,196.6s8.76,10.47,20.88,4Z"/><path class="cls-8" d="M137.51,208.3A11.6,11.6,0,0,1,134,210c-3,.74-5.9-.45-8-5.85C126,204.11,130.91,203,137.51,208.3Z"/><path class="cls-6" d="M138.42,138.31a33.94,33.94,0,0,0-32.35,5.06c-8.94,7.08-18,20.75-11.71,30.26a15.5,15.5,0,0,0,5.34,5.48c2.28,1.2,5.37,1.23,7.21-.57a6.44,6.44,0,0,0,1.31-6.27,11.72,11.72,0,0,0-.65-1.74,7.79,7.79,0,0,0,2.18-1.95c2.19-2.69,3.71-6.18,3.1-9.59a7.54,7.54,0,0,0-2-3.82,6.4,6.4,0,0,0,2.8-.94c2.2-1.54,3.81-4,6.33-4.91,3.29-1.19,6.91.61,10.4.38C135.72,149.34,139.89,143.42,138.42,138.31Z"/><path class="cls-3" d="M90.84,149.73a6.12,6.12,0,0,1,5.65-3.81,6.91,6.91,0,0,1,6.17,3.84l-1.58-.23a8.3,8.3,0,0,1,2.18-1.56,8.71,8.71,0,0,1,2.5-.81,7.47,7.47,0,0,1,4.94.83,10.45,10.45,0,0,0-4.6.54,9.83,9.83,0,0,0-2,1,8.69,8.69,0,0,0-1.63,1.38l-.91,1-.67-1.21a6,6,0,0,0-4.5-3A6.83,6.83,0,0,0,90.84,149.73Z"/><path class="cls-3" d="M95.06,165.74a3.5,3.5,0,0,1,.82-2.35,5,5,0,0,1,4.55-1.79,3.49,3.49,0,0,1,2.19,1.15,18.24,18.24,0,0,0-2.15.42,14.35,14.35,0,0,0-1.82.59,14.2,14.2,0,0,0-1.73.81A17.11,17.11,0,0,0,95.06,165.74Z"/><path class="cls-5" d="M214.67,237.35c-15.62,8-75.95,66.31-75.95,66.31l13.15,11.45,19,2.34,5.28,35.38h61.53S251.41,271,248.67,245C248.67,245,231.82,228.55,214.67,237.35Z"/><path class="cls-12" d="M204.76,259.76a.88.88,0,0,0-.11-.42,1.3,1.3,0,0,0-.36-.58l-.37-.28-.42-.17a1.43,1.43,0,0,0-.65,0,1.27,1.27,0,0,0-.63.2l-.35.22a4,4,0,0,0-.7.55l-.63.57a1.51,1.51,0,0,0-.4.63,1.76,1.76,0,0,0,0,1.42,1.39,1.39,0,0,0,.4.63l.41.31a1.81,1.81,0,0,0,.94.25l.48-.06a1.88,1.88,0,0,0,.86-.5l.57-.62a4.43,4.43,0,0,0,.54-.69l.23-.36c.05-.14.11-.28.16-.41A1.24,1.24,0,0,0,204.76,259.76Z"/><path class="cls-12" d="M208.37,265.34a1.54,1.54,0,0,0-.39-.76,1.58,1.58,0,0,0-.64-.59l-.53-.22a2.32,2.32,0,0,0-1.11,0l-.53.22a2.15,2.15,0,0,0-.82.82q-.33.42-.63.87l-.6.88a1.74,1.74,0,0,0-.25.82,2,2,0,0,0,.44,1.63,1.6,1.6,0,0,0,.66.6l.53.22a2.2,2.2,0,0,0,1.14,0l.54-.22a2.26,2.26,0,0,0,.84-.84l.58-.89c.2-.3.38-.6.56-.91a1.64,1.64,0,0,0,.25-.8A1.56,1.56,0,0,0,208.37,265.34Z"/><path class="cls-12" d="M222.46,248.54a1.46,1.46,0,0,0-.45-.7l-.45-.35a2.29,2.29,0,0,0-1.05-.28l-.54.07a2.12,2.12,0,0,0-1,.56L217.8,249a2.08,2.08,0,0,0-.46,2.35,1.54,1.54,0,0,0,.46.72c.15.12.3.24.46.35a2.23,2.23,0,0,0,1.07.29l.55-.07a2.21,2.21,0,0,0,1-.57l1.15-1.22a1.46,1.46,0,0,0,.45-.7,1.94,1.94,0,0,0,0-1.59Z"/><path class="cls-12" d="M195.71,286.15a.94.94,0,0,0-.26-.45,1.49,1.49,0,0,0-.58-.53l-.47-.19-.5-.06a1.42,1.42,0,0,0-.73.16,1.35,1.35,0,0,0-.66.41l-.33.34a6.32,6.32,0,0,0-.65.82,4.77,4.77,0,0,0-.24.44l-.23.46a1.72,1.72,0,0,0-.26.82,1.68,1.68,0,0,0,0,.86,1.62,1.62,0,0,0,.4.78,1.84,1.84,0,0,0,.66.61l.54.21a2.24,2.24,0,0,0,1.15,0l.54-.21a2.28,2.28,0,0,0,.84-.85,10.63,10.63,0,0,0,.64-1.42c0-.07,0-.15.08-.23a1.72,1.72,0,0,0,0-.24l.08-.5.06-.5A1.42,1.42,0,0,0,195.71,286.15Z"/><path class="cls-12" d="M203.17,286.64a1,1,0,0,0-.12-.47,1.41,1.41,0,0,0-.41-.64l-.4-.31-.46-.18a1.3,1.3,0,0,0-.73,0,1.46,1.46,0,0,0-.7.21,7.34,7.34,0,0,0-1.12.76l-.62.59a1.69,1.69,0,0,0-.45.7,1.94,1.94,0,0,0,0,1.59,1.72,1.72,0,0,0,.45.71l.45.34a2.17,2.17,0,0,0,1.05.28l.54-.07a2.11,2.11,0,0,0,1-.55l.58-.62.35-.45v0l0,0,.06-.09.1-.18c.08-.11.15-.23.23-.35l.18-.46A1.51,1.51,0,0,0,203.17,286.64Z"/><path class="cls-12" d="M186.32,272.79a1.38,1.38,0,0,0-.34-.67,1.55,1.55,0,0,0-.58-.53l-.47-.19a2,2,0,0,0-1,0l-.47.19a2,2,0,0,0-.73.73l-.63.87a1.46,1.46,0,0,0-.23.73,1.64,1.64,0,0,0,0,.76,1.53,1.53,0,0,0,.36.69,1.38,1.38,0,0,0,.59.53l.47.2a2.2,2.2,0,0,0,1,0l.47-.2a1.93,1.93,0,0,0,.75-.75l.55-.91a1.41,1.41,0,0,0,.22-.71A1.33,1.33,0,0,0,186.32,272.79Z"/><path class="cls-12" d="M163.08,289.69a1.62,1.62,0,0,0-.82-.56,2.87,2.87,0,0,0-1.13-.06,2.28,2.28,0,0,0-.69.13l-.47.19a3.82,3.82,0,0,0-.66.36c-.42.29-.81.63-1.21.95l-.81.64a1.76,1.76,0,0,0-.48.76,1.78,1.78,0,0,0-.18.85,1.76,1.76,0,0,0,.18.85,1.7,1.7,0,0,0,.48.76,2.29,2.29,0,0,0,1.61.66l.58-.07a2.18,2.18,0,0,0,1-.59l.77-.6c.26-.21.54-.4.79-.62a3.71,3.71,0,0,0,.5-.55l.29-.39a2.43,2.43,0,0,0,.32-.67,3.11,3.11,0,0,0,.22-1.13A1.59,1.59,0,0,0,163.08,289.69Z"/><path class="cls-12" d="M170.12,292.29a1.59,1.59,0,0,0-.59-.59,1.51,1.51,0,0,0-.78-.2h-.15a2.71,2.71,0,0,0-.57.09l-.34.1-.17.05-.27.11a1.33,1.33,0,0,0-.26.11l-.08,0-.32.22a2,2,0,0,0-.74.74c-.06.15-.13.31-.19.47a2.11,2.11,0,0,0,0,1,1.53,1.53,0,0,0,.35.68,1.55,1.55,0,0,0,.58.53,1.6,1.6,0,0,0,.73.23,1.43,1.43,0,0,0,.74,0,1.93,1.93,0,0,0,.9-.51l.29-.24a2.75,2.75,0,0,0,.52-.66l.19-.29a.46.46,0,0,0,.09-.15l.07-.16a1.6,1.6,0,0,0,0-1.55Z"/><path class="cls-12" d="M244.06,248.54c-.06-.15-.13-.31-.19-.47a2,2,0,0,0-.75-.75,1.44,1.44,0,0,0-.72-.22,1.5,1.5,0,0,0-.76,0,2.35,2.35,0,0,0-1.22.94,2.08,2.08,0,0,0-.26,1,7.59,7.59,0,0,0-.06,1.07,4.09,4.09,0,0,0,.13.93,4.67,4.67,0,0,0,.31.81,1.53,1.53,0,0,0,.57.56,1.08,1.08,0,0,0,.55.17,1.22,1.22,0,0,0,.57,0,1.5,1.5,0,0,0,.68-.39,5,5,0,0,0,.52-.69c0-.08.1-.15.14-.23a3.74,3.74,0,0,0,.25-.66,7.6,7.6,0,0,0,.24-1A1.92,1.92,0,0,0,244.06,248.54Z"/><path class="cls-12" d="M244.41,256a1.45,1.45,0,0,0-.4-.63,2,2,0,0,0-1.32-.55l-.48.06a1.87,1.87,0,0,0-.85.49l-.3.4a1.8,1.8,0,0,0-.25.93l0,.29a1.34,1.34,0,0,0,.15.69,1.68,1.68,0,0,0,1,1,1.34,1.34,0,0,0,.69.15l.46-.06a1.78,1.78,0,0,0,.84-.48l.3-.39a1.79,1.79,0,0,0,.24-.91l0-.29A1.38,1.38,0,0,0,244.41,256Z"/><path class="cls-12" d="M235.56,269.51a1.37,1.37,0,0,0-.2-.65,1.42,1.42,0,0,0-.48-.52,1.38,1.38,0,0,0-.61-.32l-.45,0a1.7,1.7,0,0,0-.88.23l-.37.28a1.84,1.84,0,0,0-.47.81c0,.25-.07.51-.1.76l0,.18a1.62,1.62,0,0,0,0,.51v.1l0,.37.05.4a1.18,1.18,0,0,0,.28.53.74.74,0,0,0,.29.29,1.17,1.17,0,0,0,.54.28l.39.05.39-.05a1.17,1.17,0,0,0,.54-.28,1.14,1.14,0,0,0,.42-.45,3.24,3.24,0,0,1,.17-.32,3.27,3.27,0,0,0,.29-.73c.07-.25.13-.5.2-.75A1.27,1.27,0,0,0,235.56,269.51Z"/><path class="cls-12" d="M211,299.63a1.45,1.45,0,0,0-.24-.75,1.51,1.51,0,0,0-.55-.6,1.47,1.47,0,0,0-.71-.37l-.52-.07a2,2,0,0,0-1,.27l-.44.33a2.07,2.07,0,0,0-.53.93l-.27,1c-.09.35-.16.71-.22,1.06a1.33,1.33,0,0,0,0,.74,1.41,1.41,0,0,0,.22.71,1.53,1.53,0,0,0,.52.58,1.42,1.42,0,0,0,.68.34,1.89,1.89,0,0,0,1.45-.19l.42-.31a2,2,0,0,0,.5-.88c.13-.34.26-.67.37-1l.33-1A1.72,1.72,0,0,0,211,299.63Z"/><path class="cls-12" d="M245.47,274.49a1.4,1.4,0,0,0-.35-.67,1.52,1.52,0,0,0-.61-.46,1.56,1.56,0,0,0-.7-.22,2,2,0,0,0-1.4.46l-.35.38a2,2,0,0,0-.32.93c0,.35-.05.71-.05,1.07s0,.5,0,.74a.65.65,0,0,0,0,.28,4.42,4.42,0,0,0,.15.48,1,1,0,0,1,0,.1l.09.23a1.64,1.64,0,0,0,1.34.93,1.6,1.6,0,0,0,1.46-.71,3.57,3.57,0,0,0,.43-.79,7,7,0,0,0,.15-.69,2.56,2.56,0,0,0,0-.27c.05-.35.08-.71.12-1.06A1.39,1.39,0,0,0,245.47,274.49Z"/><path class="cls-12" d="M242.11,282.4a1.41,1.41,0,0,0-.53-.58,1.34,1.34,0,0,0-.69-.35,2,2,0,0,0-1.48.19,2,2,0,0,0-.94,1.22l-.14.8q-.08.39-.12.78c0,.13,0,.27,0,.4a6.27,6.27,0,0,0,.05.74,7,7,0,0,0,.17,1.1,1.48,1.48,0,0,0,1,1,1.5,1.5,0,0,0,.73,0,1.39,1.39,0,0,0,.65-.38,6.31,6.31,0,0,0,.63-.9c.12-.21.23-.42.33-.64a9.63,9.63,0,0,0,.56-1.92A2.07,2.07,0,0,0,242.11,282.4Z"/><path class="cls-12" d="M236.31,323.76a2.12,2.12,0,0,0-1.25-1,2,2,0,0,0-2.48,1.45c-.06.32-.13.64-.19,1a8.59,8.59,0,0,0-.17,1.35c0,.3-.06.61-.05.92a3.15,3.15,0,0,0,.41,1.4,1.2,1.2,0,0,0,1.63.45,3.26,3.26,0,0,0,1.06-1c.16-.27.28-.56.41-.83a9.83,9.83,0,0,0,.52-1.26c.1-.32.21-.63.31-.94A2.07,2.07,0,0,0,236.31,323.76Z"/><path class="cls-12" d="M234.3,333.41a2,2,0,0,0-.52-.9,1.55,1.55,0,0,0-.66-.42,1.79,1.79,0,0,0-1.48,0,1.44,1.44,0,0,0-.66.42,2,2,0,0,0-.52.9l-.14.39-.06.19-.07.5v.15l-.1.75.06.43a1.33,1.33,0,0,0,.3.59,1,1,0,0,0,.32.32,1.33,1.33,0,0,0,.59.3l.43.06.43-.06a1.23,1.23,0,0,0,.59-.3,1.3,1.3,0,0,0,.46-.5l.48-.64.11-.15a.71.71,0,0,0,.08-.18l.17-.37a2,2,0,0,0,.26-1Z"/><path class="cls-12" d="M229.42,326.9a1.39,1.39,0,0,0-.34-.66,1.32,1.32,0,0,0-.56-.51l-.45-.19a2,2,0,0,0-1,0l-.46.19a1.86,1.86,0,0,0-.71.71c-.18.41-.36.81-.53,1.22a1.35,1.35,0,0,0-.21.67,1.39,1.39,0,0,0,0,.7,1.28,1.28,0,0,0,.33.63,1.39,1.39,0,0,0,.53.49l.44.18a1.83,1.83,0,0,0,.93,0l.44-.18a1.8,1.8,0,0,0,.69-.68c.21-.39.43-.77.65-1.15a1.46,1.46,0,0,0,.21-.7A1.26,1.26,0,0,0,229.42,326.9Z"/><path class="cls-12" d="M205,335.18a2.19,2.19,0,0,0-3-.83,2.24,2.24,0,0,0-1,1.35c-.14.6-.31,1.19-.39,1.79l-.27,1.82a1.37,1.37,0,0,0,0,.75,1.41,1.41,0,0,0,.22.71,2,2,0,0,0,1.2.93,2,2,0,0,0,1.47-.19l.41-.32a1.9,1.9,0,0,0,.51-.89c.21-.57.42-1.15.62-1.72s.34-1.18.5-1.76A2.28,2.28,0,0,0,205,335.18Z"/><path class="cls-12" d="M185.71,344.7a1.61,1.61,0,0,0-.09-.29,3.34,3.34,0,0,0-.23-.58,2.34,2.34,0,0,0-.52-.61,1,1,0,0,0-.72-.3l-.27,0a1,1,0,0,0-.46.27,2.46,2.46,0,0,0-.51.6,3.47,3.47,0,0,0-.24.59,1.61,1.61,0,0,0-.09.29,9.64,9.64,0,0,0-.15,1.61,1.39,1.39,0,0,0,.14.64,1.26,1.26,0,0,0,.37.57,1.23,1.23,0,0,0,.57.36,1.16,1.16,0,0,0,.64.14,1.72,1.72,0,0,0,1.21-.5,1.74,1.74,0,0,0,.5-1.21A9.64,9.64,0,0,0,185.71,344.7Z"/><path class="cls-12" d="M191.39,342.73l-.11-.2a1.7,1.7,0,0,0-2.66-.36l-.16.16a.46.46,0,0,1-.07.07l-.34.45c-.06.15-.12.31-.19.47a4.56,4.56,0,0,0-.13.53c-.06.35-.12.71-.17,1.07a2,2,0,0,0,0,1l.19.48a2,2,0,0,0,.77.77,1.64,1.64,0,0,0,.74.23,1.55,1.55,0,0,0,.77,0,1.47,1.47,0,0,0,.7-.36,1.51,1.51,0,0,0,.55-.6,1.94,1.94,0,0,0,.26-1c.05-.36.09-.71.14-1.07a4.73,4.73,0,0,0,0-.53A2.32,2.32,0,0,0,191.39,342.73Z"/><path class="cls-12" d="M217.91,345.22l-.06-.44a1.57,1.57,0,0,0-.21-.5,1.18,1.18,0,0,0-.56-.47,1,1,0,0,0-.69-.05l-.11,0-.33.14-.28.21-.23.19a3.56,3.56,0,0,0-.41.53l-.2.28a6,6,0,0,0-.58,1.19,1.77,1.77,0,0,0-.23.87l.06.45a1.67,1.67,0,0,0,.46.79,2,2,0,0,0,1.24.52,1.26,1.26,0,0,0,.66-.15,1.29,1.29,0,0,0,.58-.37,1.67,1.67,0,0,0,.46-.79l.21-.62a5.29,5.29,0,0,0,.19-1l0-.3A1.85,1.85,0,0,0,217.91,345.22Z"/><path class="cls-6" d="M188.51,317.6q5.18-7.2,10.46-14.28l10.54-14.18L220.05,275q5.25-7.11,10.65-14.13-4.42,7.68-9.38,15c-3.27,4.92-6.7,9.72-10.21,14.47s-7.15,9.4-10.91,13.95S192.56,313.29,188.51,317.6Z"/><path class="cls-7" d="M166.83,340.07l54.33-17.5L213,302.41s-34,.47-51,2.95Z"/><path class="cls-7" d="M217.53,291.56c-6.81,3.06-10.95,18.32-10,22.28l6.88,10.3,22.38-19.28,14-13.82a4.59,4.59,0,0,0,.26-6.24h0a4.58,4.58,0,0,0-6.19-.72h0a39.32,39.32,0,0,1-24.12,7.55Z"/><path class="cls-7" d="M247.74,291a4.36,4.36,0,0,1,3.3,3.64,5.35,5.35,0,0,1-2.37,4.74,4.1,4.1,0,0,1,2.64,3.47,4.91,4.91,0,0,1-2.23,4,3.65,3.65,0,0,1,.21,4.67,10.48,10.48,0,0,1-4.42,3.18,202.13,202.13,0,0,1-29.9,9.34Z"/><path class="cls-7" d="M205.17,310s10.71-21.12,13-23.91c1.53-1.87,9.77-3.37,15.06-4.17a3.42,3.42,0,0,1,3.9,3.85h0a3.44,3.44,0,0,1-2.21,2.74l-8.16,3v14Z"/><path class="cls-6" d="M190.25,340.07s-52.59,6.8-71.18,6.8c-8.64,0-19.75-8.49-29.16-17.59-2.6-2.5-5.07-5.06-7.33-7.5-1.55-1.67-3-3.28-4.3-4.78h0c-1.53-1.73-2.86-3.31-4-4.66-2.43-2.94-3.86-4.81-3.86-4.81l30.67-46.69,11,14.63,3.76,5,3.85,5.14,6.07,8.1,6.5,8.68,50.42-.81S192.45,315.11,190.25,340.07Z"/><path class="cls-12" d="M115.82,280.48c-1.6.79-3.17,1.63-4.72,2.5a82.54,82.54,0,0,0-32.82,34c-1.53-1.73-2.86-3.31-4-4.66a80.65,80.65,0,0,1,4.3-7.27,86,86,0,0,1,19-20.5,89.32,89.32,0,0,1,11.93-7.81c.83-.45,1.68-.88,2.54-1.29Z"/><path class="cls-12" d="M125.74,293.72c-.82.37-1.63.75-2.43,1.15a64.88,64.88,0,0,0-6.31,3.64c-1,.68-2.08,1.4-3.09,2.14-.22.15-.43.31-.64.47l-.07.05-1.39,1.1a90.83,90.83,0,0,0-10.62,10.23c-.83.94-1.65,1.9-2.45,2.87l-1.17,1.46c-.15.18-.58.74-.69.89a69.25,69.25,0,0,0-4.34,6.45c-.68,1.16-1.32,2.35-1.91,3.55-.25.51-.5,1-.72,1.56-2.6-2.5-5.07-5.06-7.33-7.5.69-1.34,1.43-2.66,2.24-3.95a92.64,92.64,0,0,1,21.87-24,76.28,76.28,0,0,1,13-8.17Z"/><path class="cls-3" d="M132.24,302.41c-1.69-2-3.31-4.13-4.93-6.21s-3.28-4.14-4.88-6.23c-3.3-4.11-6.53-8.26-9.9-12.3s-6.76-8.05-10.27-12a130.58,130.58,0,0,0-11.14-11.18,71,71,0,0,1,12.26,10.1,152.69,152.69,0,0,1,10.69,11.77c1.69,2,3.3,4.14,4.93,6.23s3.15,4.26,4.68,6.42,3,4.37,4.42,6.58S130.91,300.12,132.24,302.41Z"/><path class="cls-7" d="M60.57,272c-5.35-4.24-5-9.54-5-9.54-4.78-6.59-4.15-8.49-1-11-2.84-4.74-5.93-9.19,3.17-12.75s25-1,27.38,3.75S72.2,246.8,72.2,246.8s10.58.31,10.18,5.32-14.5,5.13-14.5,5.13c3.65,3.84,2.72,5.86-6.91,9.73Z"/></g></g></g></svg>